<svg version="1.1" xmlns="http://www.w3.org/2000/svg" xmlns:xlink="http://www.w3.org/1999/xlink" width="10" height="11" viewBox="0,0,232.72501,256"><g transform="translate(11.63625,12.8) scale(0.9,0.9)"><g fill="#ffffff" fill-rule="nonzero" stroke="none" stroke-width="1" stroke-linecap="butt" stroke-linejoin="miter" stroke-miterlimit="10" stroke-dasharray="" stroke-dashoffset="0" font-family="none" font-weight="none" font-size="none" text-anchor="none" style="mix-blend-mode: normal"><g transform="translate(-1.46336,1.39636) scale(23.27273,23.27273)"><path d="M1.332,6.172c-0.2,0 -0.372,-0.152 -0.516,-0.456c-0.144,-0.304 -0.216,-0.676 -0.216,-1.116v-2.496c0,-0.152 0.42,-0.412 1.26,-0.78c0.84,-0.376 1.324,-0.564 1.452,-0.564c0.096,0 0.232,0.16 0.408,0.48c0.04,0.08 0.096,0.188 0.168,0.324c0.08,0.136 0.144,0.248 0.192,0.336c0.104,0.192 0.236,0.288 0.396,0.288v0.24c-0.128,0.056 -0.3,0.14 -0.516,0.252c-0.504,0.28 -0.776,0.42 -0.816,0.42c-0.12,0 -0.272,-0.236 -0.456,-0.708c-0.176,-0.472 -0.32,-0.708 -0.432,-0.708c-0.144,0 -0.216,0.12 -0.216,0.36v2.676c0,0.32 0.072,0.48 0.216,0.48c0.032,0 0.28,-0.104 0.744,-0.312c0.464,-0.208 0.744,-0.312 0.84,-0.312c0.192,0 0.36,0.156 0.504,0.468c0.152,0.304 0.228,0.696 0.228,1.176v2.556c0,0.152 -0.46,0.416 -1.38,0.792c-0.912,0.368 -1.436,0.552 -1.572,0.552c-0.056,0 -0.12,-0.068 -0.192,-0.204c-0.072,-0.136 -0.168,-0.328 -0.288,-0.576c-0.112,-0.256 -0.216,-0.468 -0.312,-0.636c-0.088,-0.168 -0.212,-0.252 -0.372,-0.252v-0.24c0.128,-0.056 0.296,-0.14 0.504,-0.252c0.512,-0.28 0.788,-0.42 0.828,-0.42c0.12,0 0.288,0.276 0.504,0.828c0.224,0.552 0.392,0.828 0.504,0.828c0.08,0 0.156,-0.032 0.228,-0.096c0.072,-0.064 0.108,-0.152 0.108,-0.264v-2.7c0,-0.36 -0.1,-0.54 -0.3,-0.54c-0.064,0 -0.316,0.096 -0.756,0.288c-0.44,0.192 -0.688,0.288 -0.744,0.288zM9.66966,2.14v6.744c0,0.064 -0.44,0.268 -1.32,0.612c-0.872,0.336 -1.408,0.504 -1.608,0.504c-0.192,0 -0.416,-0.172 -0.672,-0.516c-0.248,-0.344 -0.372,-0.756 -0.372,-1.236v-5.76c0,-0.432 -0.164,-0.684 -0.492,-0.756v-0.264l1.212,-0.684c0.176,0.072 0.34,0.192 0.492,0.36c0.152,0.16 0.228,0.312 0.228,0.456l1.488,-0.84c0.144,0 0.352,0.164 0.624,0.492c0.28,0.328 0.42,0.624 0.42,0.888zM7.74966,8.896c0.152,0 0.308,-0.064 0.468,-0.192v-5.664c0,-0.568 -0.204,-0.852 -0.612,-0.852c-0.16,0 -0.316,0.06 -0.468,0.18v5.64c0,0.592 0.204,0.888 0.612,0.888z"></path></g></g></g></svg>